<?xml version="1.0"?>
<svg xmlns="http://www.w3.org/2000/svg" height="512px" viewBox="0 -20 512 512" width="512px"><g><path d="m502 278h-44v-13.78125c0-5.523438-4.476562-10-10-10s-10 4.476562-10 10v13.78125h-172v-13.78125c0-5.523438-4.476562-10-10-10s-10 4.476562-10 10v13.78125h-172v-13.78125c0-5.523438-4.476562-10-10-10s-10 4.476562-10 10v13.78125h-44c-5.523438 0-10 4.476562-10 10s4.476562 10 10 10h492c5.523438 0 10-4.476562 10-10s-4.476562-10-10-10zm0 0" data-original="#000000" class="active-path" data-old_color="#000000" fill="#5F318C"/><path d="m502 234c2.628906 0 5.210938-1.070312 7.070312-2.929688 1.859376-1.859374 2.929688-4.4375 2.929688-7.070312 0-2.628906-1.070312-5.210938-2.929688-7.070312-1.859374-1.859376-4.441406-2.929688-7.070312-2.929688s-5.210938 1.070312-7.070312 2.929688c-1.859376 1.859374-2.929688 4.441406-2.929688 7.070312 0 2.632812 1.070312 5.210938 2.929688 7.070312 1.859374 1.859376 4.441406 2.929688 7.070312 2.929688zm0 0" data-original="#000000" class="active-path" data-old_color="#000000" fill="#5F318C"/><path d="m10 234h140.128906v12.78125c0 5.523438 4.476563 10 10 10 5.519532 0 10-4.476562 10-10v-12.78125h172v12.78125c0 5.523438 4.476563 10 10 10 5.519532 0 10-4.476562 10-10v-12.78125h99.871094c5.523438 0 10-4.476562 10-10s-4.476562-10-10-10h-452c-5.523438 0-10 4.476562-10 10s4.476562 10 10 10zm0 0" data-original="#000000" class="active-path" data-old_color="#000000" fill="#5F318C"/><path d="m71.957031 319.660156c-2.765625-4.78125-8.882812-6.414062-13.664062-3.648437-4.777344 2.765625-6.410157 8.886719-3.644531 13.664062 10.464843 18.089844 10.464843 40.5625 0 58.652344-14.042969 24.265625-14.042969 54.414063 0 78.683594 1.855468 3.203125 5.210937 4.992187 8.664062 4.992187 1.699219 0 3.421875-.433594 5-1.347656 4.78125-2.765625 6.414062-8.882812 3.648438-13.664062-10.46875-18.085938-10.46875-40.5625 0-58.648438 14.039062-24.269531 14.039062-54.417969-.003907-78.683594zm0 0" data-original="#000000" class="active-path" data-old_color="#000000" fill="#5F318C"/><path d="m457.351562 319.660156c-2.765624-4.78125-8.882812-6.414062-13.664062-3.648437s-6.414062 8.882812-3.648438 13.664062c10.46875 18.089844 10.46875 40.5625 0 58.648438-14.039062 24.269531-14.039062 54.417969 0 78.6875 1.855469 3.203125 5.214844 4.992187 8.667969 4.992187 1.699219 0 3.421875-.433594 5-1.347656 4.777344-2.765625 6.410157-8.882812 3.644531-13.664062-10.464843-18.085938-10.464843-40.558594 0-58.648438 14.042969-24.269531 14.042969-54.417969 0-78.683594zm0 0" data-original="#000000" class="active-path" data-old_color="#000000" fill="#5F318C"/><path d="m200.421875 319.660156c-2.765625-4.78125-8.882813-6.414062-13.664063-3.648437-4.777343 2.765625-6.410156 8.886719-3.644531 13.664062 10.464844 18.089844 10.464844 40.5625 0 58.652344-14.042969 24.265625-14.042969 54.414063 0 78.683594 1.855469 3.203125 5.210938 4.992187 8.664063 4.992187 1.699218 0 3.421875-.433594 5-1.347656 4.78125-2.765625 6.414062-8.882812 3.648437-13.664062-10.46875-18.085938-10.46875-40.5625 0-58.648438 14.039063-24.269531 14.039063-54.417969-.003906-78.683594zm0 0" data-original="#000000" class="active-path" data-old_color="#000000" fill="#5F318C"/><path d="m320.246094 334.679688c1.5 0 3.027344-.339844 4.464844-1.058594 4.929687-2.464844 6.933593-8.457032 4.484374-13.390625-2.335937-4.730469-7.996093-6.859375-12.902343-4.753907-5.078125 2.175782-7.429688 8.054688-5.253907 13.128907.105469.246093.226563.492187.351563.730469 1.78125 3.390624 5.253906 5.34375 8.855469 5.34375zm0 0" data-original="#000000" class="active-path" data-old_color="#000000" fill="#5F318C"/><path d="m330.042969 354.703125c-5.5-.457031-10.335938 3.636719-10.792969 9.140625-.71875 8.691406-3.300781 16.929688-7.671875 24.480469-14.042969 24.269531-14.042969 54.417969 0 78.683593 1.851563 3.203126 5.210937 4.996094 8.664063 4.996094 1.699218 0 3.421874-.4375 5-1.347656 4.78125-2.765625 6.414062-8.882812 3.644531-13.664062-10.464844-18.089844-10.464844-40.5625 0-58.648438 5.78125-9.992188 9.34375-21.351562 10.296875-32.851562.453125-5.503907-3.636719-10.335938-9.140625-10.789063zm0 0" data-original="#000000" class="active-path" data-old_color="#000000" fill="#5F318C"/><path d="m30.882812 51.910156c4.367188 3.378906 10.648438 2.578125 14.027344-1.789062l8.460938-10.941406c.414062 8.613281 2.882812 17.042968 7.207031 24.519531 6.101563 10.539062 6.101563 23.628906 0 34.167969l-5.929687 10.25c-13.332032 23.035156-13.332032 51.660156 0 74.695312 1.855468 3.203125 5.210937 4.992188 8.664062 4.992188 1.699219 0 3.421875-.433594 5-1.34375 4.78125-2.765626 6.414062-8.882813 3.648438-13.664063-9.757813-16.859375-9.757813-37.804687 0-54.664063l5.929687-10.25c9.671875-16.71875 9.671875-37.484374 0-54.199218-2.523437-4.363282-4.03125-9.238282-4.453125-14.242188l8.261719 10.679688c1.96875 2.546875 4.925781 3.882812 7.914062 3.882812 2.136719 0 4.292969-.683594 6.113281-2.09375 4.367188-3.378906 5.167969-9.660156 1.789063-14.027344l-26.304687-34c-1.894532-2.449218-4.8125-3.87890575-7.90625-3.87890575-3.097657 0-6.019532 1.42968775-7.910157 3.87890575l-26.304687 34c-3.378906 4.367188-2.578125 10.648438 1.792968 14.027344zm0 0" data-original="#000000" class="active-path" data-old_color="#000000" fill="#5F318C"/><path d="m159.34375 51.910156c4.371094 3.378906 10.648438 2.578125 14.027344-1.789062l8.464844-10.941406c.414062 8.613281 2.878906 17.039062 7.207031 24.519531 6.097656 10.539062 6.097656 23.628906 0 34.164062l-5.929688 10.25c-13.332031 23.039063-13.332031 51.660157 0 74.699219 1.851563 3.203125 5.210938 4.992188 8.664063 4.992188 1.699218 0 3.421875-.433594 5-1.34375 4.777344-2.769532 6.410156-8.886719 3.644531-13.664063-9.753906-16.859375-9.753906-37.808594 0-54.664063l5.933594-10.25c9.671875-16.71875 9.671875-37.484374 0-54.199218-2.527344-4.363282-4.035157-9.238282-4.453125-14.242188l8.257812 10.675782c1.972656 2.546874 4.929688 3.882812 7.917969 3.882812 2.136719 0 4.292969-.683594 6.113281-2.089844 4.367188-3.378906 5.167969-9.660156 1.789063-14.027344l-26.304688-34c-1.894531-2.449218-4.8125-3.882812-7.90625-3.882812-3.097656 0-6.015625 1.433594-7.910156 3.882812l-26.304687 34c-3.378907 4.367188-2.578126 10.648438 1.789062 14.027344zm0 0" data-original="#000000" class="active-path" data-old_color="#000000" fill="#5F318C"/><path d="m287.808594 51.910156c1.824218 1.410156 3.976562 2.089844 6.113281 2.089844 2.988281 0 5.945313-1.332031 7.917969-3.878906l8.460937-10.941406c.414063 8.613281 2.878907 17.042968 7.207031 24.519531 6.097657 10.539062 6.097657 23.628906 0 34.167969l-5.929687 10.25c-13.332031 23.035156-13.332031 51.660156 0 74.695312 1.855469 3.203125 5.210937 4.996094 8.664063 4.996094 1.699218 0 3.421874-.4375 5-1.347656 4.78125-2.765626 6.414062-8.882813 3.644531-13.664063-9.753907-16.859375-9.753907-37.804687 0-54.664063l5.933593-10.25c9.671876-16.714843 9.671876-37.484374 0-54.199218-2.523437-4.363282-4.035156-9.238282-4.453124-14.242188l8.261718 10.679688c3.378906 4.367187 9.65625 5.167968 14.027344 1.789062 4.367188-3.378906 5.167969-9.660156 1.789062-14.027344l-26.304687-34c-1.894531-2.449218-4.8125-3.882812-7.90625-3.882812-3.097656 0-6.015625 1.433594-7.910156 3.882812l-26.304688 34c-3.378906 4.367188-2.578125 10.648438 1.789063 14.027344zm0 0" data-original="#000000" class="active-path" data-old_color="#000000" fill="#5F318C"/><path d="m416.273438 51.910156c1.820312 1.410156 3.976562 2.089844 6.113281 2.089844 2.988281 0 5.945312-1.332031 7.917969-3.878906l8.460937-10.941406c.414063 8.613281 2.878906 17.039062 7.207031 24.519531 6.097656 10.539062 6.097656 23.628906 0 34.164062l-5.929687 10.25c-13.332031 23.039063-13.332031 51.660157 0 74.699219 1.851562 3.203125 5.210937 4.992188 8.664062 4.992188 1.699219 0 3.421875-.433594 5-1.34375 4.78125-2.769532 6.414063-8.886719 3.644531-13.664063-9.753906-16.859375-9.753906-37.808594 0-54.664063l5.933594-10.25c9.671875-16.71875 9.671875-37.484374 0-54.199218-2.523437-4.363282-4.03125-9.238282-4.453125-14.242188l8.261719 10.675782c3.378906 4.371093 9.660156 5.171874 14.027344 1.792968 4.367187-3.378906 5.167968-9.660156 1.789062-14.027344l-26.300781-34c-1.894531-2.449218-4.816406-3.882812-7.910156-3.882812s-6.015625 1.433594-7.910157 3.882812l-26.304687 34c-3.378906 4.367188-2.578125 10.648438 1.789063 14.027344zm0 0" data-original="#000000" class="active-path" data-old_color="#000000" fill="#5F318C"/></g> </svg>
