<?xml version="1.0"?>
<svg xmlns="http://www.w3.org/2000/svg" height="512px" viewBox="0 0 512 512" width="512px" class=""><g><path d="m502 492h-44v-13.28125c0-5.523438-4.476562-10-10-10s-10 4.476562-10 10v13.28125h-172v-13.28125c0-5.523438-4.476562-10-10-10s-10 4.476562-10 10v13.28125h-172v-13.28125c0-5.523438-4.476562-10-10-10s-10 4.476562-10 10v13.28125h-44c-5.523438 0-10 4.476562-10 10s4.476562 10 10 10h492c5.523438 0 10-4.476562 10-10s-4.476562-10-10-10zm0 0" data-original="#000000" class="active-path" data-old_color="#000000" fill="#5F318C"/><path d="m10 448c2.628906 0 5.210938-1.070312 7.070312-2.929688 1.859376-1.859374 2.929688-4.441406 2.929688-7.070312s-1.070312-5.210938-2.929688-7.070312c-1.859374-1.859376-4.441406-2.929688-7.070312-2.929688s-5.210938 1.070312-7.070312 2.929688c-1.859376 1.859374-2.929688 4.441406-2.929688 7.070312s1.070312 5.210938 2.929688 7.070312c1.859374 1.859376 4.441406 2.929688 7.070312 2.929688zm0 0" data-original="#000000" class="active-path" data-old_color="#000000" fill="#5F318C"/><path d="m412.976562 369.300781h5.949219c-94.171875 78.085938-231.679687 78.085938-325.851562 0h5.949219c5.523437 0 10-4.476562 10-10 0-5.519531-4.476563-10-10-10h-31.398438c-5.523438 0-10 4.480469-10 10v31.398438c0 5.519531 4.476562 10 10 10s10-4.480469 10-10v-8.238281c22.636719 19.292968 47.914062 34.589843 74.972656 45.539062h-102.597656c-5.523438 0-10 4.476562-10 10 0 5.519531 4.476562 10 10 10h100.128906v13.28125c0 5.519531 4.476563 10 10 10 5.519532 0 10-4.480469 10-10v-13.28125h172v13.28125c0 5.523438 4.476563 10 10 10 5.519532 0 10-4.476562 10-10v-13.28125h139.871094c5.523438 0 10-4.476562 10-10s-4.476562-10-10-10h-142.597656c27.058594-10.949219 52.335937-26.246094 74.972656-45.539062v8.238281c0 5.523437 4.476562 10 10 10s10-4.476563 10-10v-31.394531c0-5.523438-4.476562-10-10-10h-31.398438c-5.523437 0-10 4.476562-10 10 0 5.519531 4.476563 9.996093 10 9.996093zm0 0" data-original="#000000" class="active-path" data-old_color="#000000" fill="#5F318C"/><path d="m28.222656 108.9375c1.851563 3.207031 5.210938 5 8.667969 5 1.695313 0 3.417969-.429688 4.992187-1.339844l12.117188-6.996094v13.992188c0 5.523438 4.476562 10 10 10s10-4.476562 10-10v-13.992188l12.117188 6.996094c1.574218.910156 3.292968 1.339844 4.992187 1.339844 3.457031 0 6.816406-1.792969 8.667969-5 2.761718-4.78125 1.125-10.898438-3.660156-13.660156l-12.117188-6.996094 12.117188-6.996094c4.785156-2.761718 6.421874-8.875 3.660156-13.660156-2.761719-4.78125-8.878906-6.421875-13.660156-3.660156l-12.117188 6.996094v-13.992188c0-5.523438-4.476562-10-10-10s-10 4.476562-10 10v13.992188l-12.117188-6.996094c-4.78125-2.761719-10.898437-1.121094-13.660156 3.660156-2.761718 4.78125-1.125 10.898438 3.660156 13.660156l12.117188 6.996094-12.117188 6.996094c-4.78125 2.761718-6.421874 8.878906-3.660156 13.660156zm0 0" data-original="#000000" class="active-path" data-old_color="#000000" fill="#5F318C"/><path d="m428.425781 240.066406c1.851563 3.210938 5.214844 5.003906 8.667969 5.003906 1.695312 0 3.417969-.433593 4.992188-1.34375l12.117187-6.996093v13.992187c0 5.523438 4.476563 10 10 10s10-4.476562 10-10v-13.992187l12.117187 6.996093c1.578126.910157 3.296876 1.34375 4.992188 1.34375 3.457031 0 6.816406-1.792968 8.667969-5.003906 2.761719-4.78125 1.125-10.898437-3.660157-13.660156l-12.117187-6.996094 12.117187-6.996094c4.785157-2.757812 6.421876-8.875 3.660157-13.65625-2.757813-4.785156-8.875-6.425781-13.660157-3.660156l-12.117187 6.996094v-13.992188c0-5.523437-4.476563-10-10-10s-10 4.476563-10 10v13.992188l-12.117187-6.996094c-4.78125-2.761718-10.898438-1.125-13.660157 3.660156-2.761719 4.78125-1.121093 10.898438 3.660157 13.65625l12.117187 6.996094-12.117187 6.996094c-4.78125 2.761719-6.421876 8.878906-3.660157 13.660156zm0 0" data-original="#000000" class="active-path" data-old_color="#000000" fill="#5F318C"/><path d="m157.5 293.148438c0 2.632812 1.070312 5.210937 2.929688 7.070312 1.859374 1.859375 4.441406 2.929688 7.070312 2.929688s5.210938-1.070313 7.070312-2.929688c1.859376-1.859375 2.929688-4.4375 2.929688-7.070312 0-2.628907-1.070312-5.210938-2.929688-7.070313-1.859374-1.859375-4.441406-2.929687-7.070312-2.929687s-5.210938 1.070312-7.070312 2.929687c-1.859376 1.859375-2.929688 4.441406-2.929688 7.070313zm0 0" data-original="#000000" class="active-path" data-old_color="#000000" fill="#5F318C"/><path d="m468.929688 295.421875c-1.859376 1.867187-2.929688 4.4375-2.929688 7.066406 0 2.640625 1.070312 5.210938 2.929688 7.070313 1.859374 1.871094 4.441406 2.929687 7.070312 2.929687s5.210938-1.058593 7.070312-2.929687c1.859376-1.859375 2.929688-4.429688 2.929688-7.070313 0-2.628906-1.070312-5.199219-2.929688-7.066406-1.859374-1.863281-4.441406-2.933594-7.070312-2.933594s-5.210938 1.070313-7.070312 2.933594zm0 0" data-original="#000000" class="active-path" data-old_color="#000000" fill="#5F318C"/><path d="m28 318.589844c2.628906 0 5.210938-1.070313 7.070312-2.929688 1.859376-1.859375 2.929688-4.441406 2.929688-7.070312 0-2.640625-1.070312-5.210938-2.929688-7.070313-1.859374-1.859375-4.441406-2.929687-7.070312-2.929687s-5.210938 1.070312-7.070312 2.929687c-1.859376 1.859375-2.929688 4.441407-2.929688 7.070313s1.070312 5.210937 2.929688 7.070312c1.859374 1.859375 4.441406 2.929688 7.070312 2.929688zm0 0" data-original="#000000" class="active-path" data-old_color="#000000" fill="#5F318C"/><path d="m155.671875 157.179688c2.628906 0 5.199219-1.070313 7.066406-2.929688 1.863281-1.859375 2.933594-4.441406 2.933594-7.070312 0-2.628907-1.070313-5.210938-2.933594-7.070313-1.859375-1.859375-4.4375-2.929687-7.066406-2.929687-2.640625 0-5.210937 1.070312-7.070313 2.929687-1.871093 1.859375-2.929687 4.441406-2.929687 7.070313 0 2.628906 1.058594 5.210937 2.929687 7.070312 1.859376 1.859375 4.4375 2.929688 7.070313 2.929688zm0 0" data-original="#000000" class="active-path" data-old_color="#000000" fill="#5F318C"/><path d="m384 82.628906c2.628906 0 5.210938-1.070312 7.070312-2.929687 1.859376-1.871094 2.929688-4.4375 2.929688-7.070313 0-2.640625-1.070312-5.207031-2.929688-7.078125-1.859374-1.859375-4.441406-2.921875-7.070312-2.921875s-5.210938 1.0625-7.070312 2.921875c-1.859376 1.871094-2.929688 4.4375-2.929688 7.078125 0 2.632813 1.070312 5.199219 2.929688 7.070313 1.859374 1.859375 4.441406 2.929687 7.070312 2.929687zm0 0" data-original="#000000" class="active-path" data-old_color="#000000" fill="#5F318C"/><path d="m360.566406 314.128906c18.75 0 34-15.253906 34-34 0-18.75-15.25-34-34-34-18.746094 0-34 15.25-34 34 0 18.746094 15.253906 34 34 34zm0-48c7.71875 0 14 6.277344 14 14 0 7.71875-6.28125 14-14 14s-14-6.28125-14-14c0-7.722656 6.28125-14 14-14zm0 0" data-original="#000000" class="active-path" data-old_color="#000000" fill="#5F318C"/><path d="m280 68c18.746094 0 34-15.253906 34-34s-15.253906-34-34-34-34 15.253906-34 34 15.253906 34 34 34zm0-48c7.71875 0 14 6.28125 14 14s-6.28125 14-14 14-14-6.28125-14-14 6.28125-14 14-14zm0 0" data-original="#000000" class="active-path" data-old_color="#000000" fill="#5F318C"/><path d="m54 232c0 18.746094 15.253906 34 34 34s34-15.253906 34-34-15.253906-34-34-34-34 15.253906-34 34zm48 0c0 7.71875-6.28125 14-14 14s-14-6.28125-14-14 6.28125-14 14-14 14 6.28125 14 14zm0 0" data-original="#000000" class="active-path" data-old_color="#000000" fill="#5F318C"/><path d="m253.371094 183.804688c15.304687 0 27.753906-12.449219 27.753906-27.75 0-4.273438 3.476562-7.753907 7.75-7.753907 15.304688 0 27.753906-12.449219 27.753906-27.75 0-5.523437-4.476562-10-10-10-5.523437 0-10 4.476563-10 10 0 4.273438-3.480468 7.75-7.753906 7.75-15.300781 0-27.75 12.453125-27.75 27.753907 0 4.273437-3.480469 7.75-7.753906 7.75-5.523438 0-10 4.476562-10 10 0 5.523437 4.476562 10 10 10zm0 0" data-original="#000000" class="active-path" data-old_color="#000000" fill="#5F318C"/><path d="m202.742188 356.40625c15.304687 0 27.753906-12.449219 27.753906-27.753906 0-4.273438 3.476562-7.75 7.75-7.75 15.304687 0 27.753906-12.449219 27.753906-27.753906 0-5.519532-4.476562-10-10-10s-10 4.480468-10 10c0 4.273437-3.480469 7.753906-7.753906 7.753906-15.300782 0-27.75 12.449218-27.75 27.75 0 4.277344-3.480469 7.753906-7.753906 7.753906-5.523438 0-10 4.476562-10 10s4.476562 10 10 10zm0 0" data-original="#000000" class="active-path" data-old_color="#000000" fill="#5F318C"/></g> </svg>
