<?xml version="1.0"?>
<svg xmlns="http://www.w3.org/2000/svg" id="Capa_1" enable-background="new 0 0 512 512" height="512px" viewBox="0 0 512 512" width="512px" class=""><g><g><path d="m145.54 426.635c-41.511-34.852-67.596-85.724-71.57-139.571l-17.265-233.939c-.08-1.087.501-1.763.854-2.07.353-.306 1.103-.784 2.169-.553l29.429 6.44c13.145 2.877 26.653 4.336 40.146 4.336 40.619 0 79.237-12.806 111.68-37.032l10.457-7.809c2.639-1.97 6.325-1.97 8.963 0l10.457 7.808c9.227 6.891 19.086 12.938 29.303 17.975 3.712 1.829 8.2.303 10.029-3.408 1.829-3.71.304-8.2-3.407-10.029-9.397-4.631-18.469-10.196-26.963-16.54l-10.457-7.809c-7.916-5.91-18.972-5.91-26.889 0l-10.458 7.809c-29.834 22.28-65.353 34.056-102.717 34.056-12.418 0-24.848-1.342-36.944-3.989l-29.43-6.441c-5.443-1.19-10.978.22-15.187 3.871s-6.387 8.931-5.977 14.488l17.265 233.94c4.269 57.854 32.29 112.506 76.876 149.942 1.404 1.178 3.113 1.754 4.812 1.754 2.137 0 4.258-.909 5.74-2.674 2.664-3.17 2.252-7.894-.916-10.555z" data-original="#000000" class="active-path" data-old_color="#000000" fill="#5F318C"/><path d="m396.975 114.683c-3.688-4.216-9.419-3.55-14.434-3.474-42.087 0-83.323-11.12-119.25-32.156-4.545-2.661-10.192-2.663-14.736 0-35.927 21.036-77.163 32.156-119.251 32.156-4.948-.102-10.62-.658-14.208 3.495-2.228 2.343-3.369 5.536-3.131 8.76l9 122.303-2.996 9.221h-20.19c-4.901 0-9.21 3.132-10.724 7.792-1.514 4.661.132 9.727 4.096 12.606l16.334 11.868-6.239 19.202c-1.515 4.66.131 9.727 4.096 12.607 3.964 2.881 9.292 2.882 13.256 0l10.041-7.295c9.933 36.456 33.433 68.431 65.377 88.577l53.715 33.878c2.506 1.581 5.381 2.372 8.257 2.372 2.861 0 5.723-.783 8.222-2.349l53.955-33.823c32.03-20.078 55.573-51.942 65.605-88.358l9.632 6.998c3.964 2.881 9.292 2.881 13.257 0 3.965-2.88 5.611-7.947 4.096-12.606l-6.239-19.203 16.333-11.867c3.965-2.88 5.611-7.946 4.097-12.607s-5.824-7.792-10.724-7.792h-20.19l-2.674-8.23 8.765-123.33c.229-3.221-.919-6.409-3.148-8.745zm-93.557 83.145-21.69 15.758c-4.555 3.309-6.447 9.129-4.708 14.486l8.285 25.499-21.691-15.76c-2.277-1.654-4.946-2.481-7.615-2.481s-5.338.827-7.615 2.482l-21.691 15.758 8.285-25.499c1.739-5.356-.153-11.176-4.708-14.484l-21.69-15.759h26.811c5.631 0 10.582-3.599 12.322-8.954l8.287-25.497 8.285 25.498c1.74 5.355 6.692 8.954 12.322 8.954h26.811zm-184.951 78.89-9.29-6.75h11.483c4.9 0 9.21-3.132 10.724-7.791l3.548-10.92 3.548 10.92c1.514 4.66 5.824 7.791 10.724 7.791h11.483l-9.289 6.749c-3.966 2.88-5.613 7.947-4.097 12.607l3.548 10.921-9.289-6.749c-3.965-2.881-9.294-2.881-13.256 0l-9.289 6.749 3.548-10.921c1.515-4.661-.133-9.729-4.096-12.606zm191.741 111.014-46.676 29.259v-124.654c0-4.137-3.353-7.49-7.49-7.49s-7.49 3.353-7.49 7.49v124.695l-46.546-29.357c-26.791-16.897-46.989-43.035-56.878-73.07l6.137 4.459c3.964 2.88 9.291 2.88 13.256.001 3.964-2.881 5.611-7.947 4.097-12.607l-6.239-19.203 16.333-11.867c3.964-2.88 5.611-7.946 4.097-12.607s-5.824-7.792-10.724-7.792h-20.19l-6.24-19.202c-1.514-4.661-5.824-7.792-10.724-7.792-.078 0-.154.008-.232.009l-7.514-101.823c.709.006 1.417.009 2.118.009 41.818 0 82.858-10.335 119.249-29.955v49.991c-2.241 1.574-3.982 3.853-4.875 6.6l-9.755 30.023h-31.567c-5.631 0-10.582 3.598-12.323 8.953-1.74 5.354.152 11.175 4.707 14.485l25.539 18.555-9.755 30.023c-1.74 5.355.152 11.176 4.707 14.486 4.554 3.309 10.676 3.308 15.23-.001l25.54-18.555 25.539 18.555c4.555 3.31 10.676 3.309 15.231.001 4.555-3.31 6.447-9.131 4.707-14.486l-9.755-30.023 25.539-18.555c4.555-3.31 6.446-9.131 4.707-14.485-1.74-5.355-6.692-8.953-12.323-8.953h-31.567l-9.755-30.023c-.881-2.713-2.589-4.972-4.79-6.543v-49.922c36.331 19.537 77.282 29.828 119.009 29.828.785 0 1.575-.004 2.368-.012l-7.238 101.841c-.201-.011-.401-.024-.604-.024-4.9 0-9.21 3.132-10.724 7.792l-6.24 19.202h-20.19c-4.901 0-9.21 3.132-10.724 7.792-1.514 4.661.133 9.727 4.097 12.606l16.334 11.868-6.239 19.203c-1.515 4.66.132 9.726 4.097 12.607 3.964 2.88 9.291 2.88 13.255-.001l6.782-4.927c-9.88 30.295-30.23 56.621-57.308 73.596zm92.615-117.763-9.287 6.748c-3.966 2.879-5.614 7.946-4.099 12.608l3.548 10.921-9.287-6.748c-1.983-1.441-4.306-2.162-6.63-2.162-2.323 0-4.646.721-6.628 2.161l-9.289 6.749 3.547-10.919c1.516-4.662-.13-9.729-4.096-12.608l-9.29-6.75h11.483c4.9 0 9.21-3.132 10.724-7.791l3.548-10.92 3.548 10.92c1.514 4.66 5.824 7.791 10.724 7.791z" data-original="#000000" class="active-path" data-old_color="#000000" fill="#5F318C"/><path d="m464.118 39.692c-4.21-3.64-9.742-5.042-15.175-3.848l-29.361 6.444c-12.122 2.66-24.584 4.009-37.04 4.009-14.659 0-29.172-1.824-43.134-5.42-4.007-1.037-8.09 1.378-9.122 5.384s1.379 8.09 5.384 9.122c15.183 3.912 30.952 5.894 46.871 5.894 13.535 0 27.077-1.466 40.252-4.358l29.362-6.444c1.061-.233 1.813.244 2.167.55.354.305.935.98.858 2.067l-16.579 233.285c-4.54 63.887-39.648 122.337-93.915 156.356l-84.814 53.166c-2.423 1.52-5.554 1.516-7.973-.011l-77.972-49.177c-3.499-2.205-8.124-1.158-10.331 2.34-2.207 3.499-1.159 8.124 2.34 10.331l77.972 49.177c3.639 2.295 7.812 3.443 11.987 3.443 4.153 0 8.308-1.137 11.934-3.41l84.814-53.166c58.304-36.548 96.024-99.348 100.901-167.987l16.579-233.285c.394-5.552-1.795-10.824-6.005-14.462z" data-original="#000000" class="active-path" data-old_color="#000000" fill="#5F318C"/><path d="m55.323 349.996h-13.844c-.992 0-1.872-.639-2.179-1.583l-4.278-13.166c-.686-2.11-3.671-2.11-4.357 0l-4.278 13.166c-.307.944-1.186 1.583-2.179 1.583h-13.843c-2.219 0-3.142 2.839-1.346 4.144l11.2 8.137c.803.583 1.139 1.617.832 2.561l-4.278 13.166c-.686 2.11 1.73 3.865 3.525 2.561l11.2-8.137c.803-.583 1.89-.583 2.693 0l11.2 8.137c1.795 1.304 4.211-.451 3.525-2.561l-4.278-13.166c-.307-.944.029-1.978.832-2.561l11.2-8.137c1.795-1.305.872-4.144-1.347-4.144z" data-original="#000000" class="active-path" data-old_color="#000000" fill="#5F318C"/><path d="m501.635 349.996h-13.844c-.992 0-1.872-.639-2.179-1.583l-4.278-13.166c-.686-2.11-3.671-2.11-4.357 0l-4.278 13.166c-.307.944-1.186 1.583-2.179 1.583h-13.844c-2.219 0-3.142 2.839-1.346 4.144l11.2 8.137c.803.583 1.139 1.617.832 2.561l-4.278 13.166c-.686 2.11 1.73 3.865 3.525 2.561l11.2-8.137c.803-.583 1.89-.583 2.693 0l11.2 8.137c1.795 1.304 4.211-.451 3.525-2.561l-4.278-13.166c-.307-.944.029-1.978.832-2.561l11.2-8.137c1.796-1.305.873-4.144-1.346-4.144z" data-original="#000000" class="active-path" data-old_color="#000000" fill="#5F318C"/></g></g> </svg>
