<?xml version="1.0" encoding="utf-8"?>
<!-- Generator: Adobe Illustrator 24.1.2, SVG Export Plug-In . SVG Version: 6.00 Build 0)  -->
<svg version="1.1" id="Layer_1" xmlns="http://www.w3.org/2000/svg" xmlns:xlink="http://www.w3.org/1999/xlink" x="0px" y="0px"
	 viewBox="0 0 141 49.4" style="enable-background:new 0 0 141 49.4;" xml:space="preserve">
<style type="text/css">
	.st0{fill-rule:evenodd;clip-rule:evenodd;fill:#DF1E2C;}
	.st1{fill-rule:evenodd;clip-rule:evenodd;fill:#777777;}
</style>
<desc>Created with Sketch.</desc>
<g>
	<g id="Composite_Path">
		<g>
			<path class="st0" d="M25.1,31.3H14.5L1.5,48.9l9.3,0.1l1.6-2.9H20l0.2,2.9h9.1L25.1,31.3z M15,41.6l3.8-6.8h0.1l0.6,6.8H15z"/>
		</g>
	</g>
	<g id="Composite_Path_1_">
		<g>
			<path class="st0" d="M55.3,36.6c0.7-2.9-0.9-5.2-7.4-5.2H35.5L31.2,49h8.3l1.4-5.8h1.3c0.8,0,1.2,0.3,1.4,1.4l1,4.4h9.3
				c-1.6-6.4-2.5-7.5-4.7-7.9l0,0C52.1,41,54.7,39,55.3,36.6z M46.8,37.5c-0.4,1.6-1.6,1.7-3.1,1.7h-1.7l0.9-3.7h1.9
				C46.8,35.5,47.1,36.2,46.8,37.5z"/>
		</g>
	</g>
	<g id="Path_10_">
		<g>
			<polygon class="st0" points="78.2,31.4 72.3,44.9 72.2,44.9 73.4,31.4 62.9,31.4 54.2,49 61.9,49 67.2,35.5 67.3,35.5 66.4,49 
				76.1,49 81.9,35.5 82,35.5 80.3,49 88.1,49 88.6,31.4 			"/>
		</g>
	</g>
	<g id="Composite_Path_2_">
		<g>
			<path class="st0" d="M105.4,31c-8.2,0-13.5,4-14.7,9.2c-1.2,5.2,2.2,9.2,10.4,9.2c8.2,0,13.5-4,14.7-9.2
				C117,34.9,113.6,31,105.4,31z M107.1,40.2c-0.6,2.4-1.9,4.3-4.8,4.3c-2.9,0-3.4-1.9-2.8-4.3c0.6-2.4,1.9-4.3,4.8-4.3
				C107.2,35.8,107.6,37.8,107.1,40.2z"/>
		</g>
	</g>
	<g id="Composite_Path_3_">
		<g>
			<path class="st0" d="M139.8,36.6c0.7-2.9-0.9-5.2-7.4-5.2H120L115.7,49h8.3l1.4-5.8h1.3c0.8,0,1.2,0.3,1.4,1.4l1,4.4h9.3
				c-1.6-6.4-2.5-7.5-4.7-7.9l0,0C136.6,41,139.2,39,139.8,36.6z M131.3,37.5c-0.4,1.6-1.6,1.7-3.1,1.7h-1.7l0.9-3.7h1.9
				C131.3,35.5,131.6,36.2,131.3,37.5z"/>
		</g>
	</g>
	<path class="st1" d="M11,15.8c-0.1,0.4,0.1,0.7,1.1,0.8l3.8,0.5c3.5,0.5,4.8,2.5,4.2,5.2c-0.9,4.1-4.8,6.1-11.4,6.1
		c-3.3,0-6.3-0.2-8.7-0.3l1.8-4.6C3.6,23.8,5.4,24,6.9,24c3,0,4.1-0.3,4.3-1c0.2-0.7-0.2-0.9-1-1l-3.4-0.4c-4.2-0.5-5-3.4-4.5-5.3
		c1.1-4.9,6.2-6.1,12.2-6.1c3.2,0,5.8,0.2,7.8,0.3l-1.7,4.6c-1.6-0.3-4.1-0.4-5.8-0.4C11.7,14.6,11.2,15.2,11,15.8z M39.9,10.5
		l-1.5,6.2h-6.2l1.5-6.2h-8.4L21,28.1h8.4l1.5-6.2h6.2l-1.5,6.2h8.4l4.3-17.7H39.9z M51.3,10.5L47,28.1h8.4l4.3-17.7H51.3z
		 M78.5,10.5l-2.4,10.2H76l-2.7-10.2H62.9l-4.3,17.7H66l2.2-10.3h0.1l3,10.3h10.4L86,10.5H78.5z M84.8,28.1h19.2l1.1-4.5H94.1l0.5-2
		h10.9l1.1-4.5H95.7l0.5-2h10.9l1.1-4.5H89L84.8,28.1z M122.8,8.2c-0.2,0-0.6,0.2-0.6,0.4c-0.3,0.8-0.8,2.5-0.8,2.8
		c0,0.3,0,0.2,0.1,0.3l14.5-1.4c0.2,0,0.4,0,0.6,0.1v0.4c0,0.2-0.3,0.9-0.4,1.4c-0.7,3.5-5.3,9.3-9.4,10.8c-1,0.3-2.5,1.2-2.8,1.2
		c-0.4,0-3.8-2.8-4.1-3.1c-0.7-0.8-1.2-1.7-1.7-2.7c3.6-0.3,7-0.7,10.5-1.1c0.3-0.8,0.6-1.8,0.9-2.8v-0.4h-1.2l-10.8,1.1
		c-0.3,0-0.4-0.1-0.6-0.2v-2.7c0-1.7,1.9-7.2,2.7-7.3c6.3-1,12.9-1.4,19.4-1.9c1.4-0.1,1.3-2.4,1.9-3.3h-2.1c-7,0.7-14.3,1-21.2,2.1
		c-0.6,0-0.7,0.9-0.9,1.2c-0.7,1.2-1.3,2.3-1.8,3.5c-0.6,1.2-0.8,2.8-1.1,4.1v5.2c0,0.2,0.2,1,0.3,1.5c0.6,2.8,3.9,7.2,7.2,8.8
		c0.8,0.3,2.2,1.2,2.5,1.2c1,0,6.2-2.9,6.3-3c1.1-0.7,2.2-1.5,3.2-2.4c2.1-1.9,3.8-4.4,4.7-6.3c0.6-1.4,1.1-2.7,1.3-4
		c0.3-1.3,0.6-3.9,0.6-4.1c0-0.3,0-1-0.2-1.4C134.2,7.1,128.5,7.6,122.8,8.2z"/>
</g>
</svg>
